# xmcd
#
# Track frame offsets:
#	182
#	23042
#	42017
#	58840
#	77750
#	92545
#	127645
#	143850
#	162462
#	181790
#	195312
#	208625
#	234447
#
# Disc length: 3254 seconds
#
# Revision: 2
# Processed by: cddbd v1.5.2PL0 Copyright (c) Steve Scherf et al.
# Submitted via: audiograbber 1.83.01
#
DISCID=9c0cb40d
DTITLE=Freewheelers, The - Waitin' for George
DYEAR=1996
DGENRE=Rock
TTITLE0=Best be on your way
TTITLE1=What's the matter Ruth
TTITLE2=Mother nature lady
TTITLE3=Ghost of Tchoupitoulas St.
TTITLE4=My little friend
TTITLE5=(Chico's sellin') Maps to the stars
TTITLE6=Crime pays
TTITLE7=Walkin' funny
TTITLE8=About Marie
TTITLE9=Kiss her for the punk
TTITLE10=Elevator man
TTITLE11=Blame
TTITLE12=Let the music bring a smile
EXTD=
EXTT0=
EXTT1=
EXTT2=
EXTT3=
EXTT4=
EXTT5=
EXTT6=
EXTT7=
EXTT8=
EXTT9=
EXTT10=
EXTT11=
EXTT12=
PLAYORDER=
